<?xml version="1.0" encoding="UTF-8"?>
<svg width="62px" height="60px" viewBox="0 0 62 60" version="1.1" xmlns="http://www.w3.org/2000/svg" xmlns:xlink="http://www.w3.org/1999/xlink">
    <!-- Generator: Sketch 55.2 (78181) - https://sketchapp.com -->
    <title>Group</title>
    <desc>Created with Sketch.</desc>
    <g id="Page-1" stroke="none" stroke-width="1" fill="none" fill-rule="evenodd">
        <g id="Artboard-Copy-2" transform="translate(-103.000000, -54.000000)" fill-rule="nonzero">
            <g id="Group-2" transform="translate(103.000000, 54.000000)">
                <g id="Group">
                    <path d="M8.34772991,25 C5.63264433,24.9007603 3.57743214,23.5165819 2.0797076,21.2367228 C1.52591417,20.39373 1.08985991,19.486198 0.760544937,18.5786136 C0.64546806,18.2614644 0.552205516,17.9678196 0.479143301,17.7057808 C0.450685514,17.6037165 0.429665601,17.5226738 0.415584416,17.4650332 L0.415584416,-5.32907052e-15 C1.14703761,1.19078904 2.01706283,2.20942073 3.00095248,3.06668785 C4.12684088,4.04767907 5.33328075,4.75964072 6.54160548,5.24621845 C7.27430045,5.54126584 7.85330568,5.69690101 8.20314466,5.75580681 L8.31487333,5.76515 L61.4155844,5.76515 L61.4155844,11.5178892 L58.1732171,14.5975865 L58.1732171,15.4096388 L61.4155844,18.4877037 L61.4155844,24.8584138 L8.34772991,25 Z" id="Combined-Shape" fill="#426BFF" transform="translate(30.915584, 12.500000) scale(1, -1) translate(-30.915584, -12.500000) "></path>
                    <path d="M8.32533458,46 C5.63947904,45.6084794 3.59698704,44.1896769 2.09383314,42.0759045 C1.55401342,41.3167966 1.12212064,40.5179396 0.788653172,39.7274657 C0.60481638,39.2916865 0.484523138,38.9436819 0.415584416,38.7053296 L0.415584416,21 C2.06294846,23.8423239 4.4348325,25.5956611 7.03536369,26.503964 L7.06273255,26.5114447 C7.54384265,26.677623 7.90046204,26.766995 8.11409393,26.8042868 L8.1723596,26.8144577 L41.4155844,26.8144577 L41.4155844,32.9584854 L38.1944834,35.9576022 L38.1944834,36.749763 L41.4155844,39.7506978 L41.4155844,46 L8.32533458,46 Z" id="Combined-Shape" fill="#426BFF" transform="translate(20.915584, 33.500000) scale(1, -1) translate(-20.915584, -33.500000) "></path>
                    <path d="M21,60 L9.13705671,60 C9.07837377,60 9.03156288,59.9997415 8.9238145,59.9991965 C8.7025267,59.9980754 8.60360794,59.9980754 8.47791524,60 L8.42574727,60 C8.0346491,60 7.6507698,59.9286341 7.14573785,59.7737429 C7.12398379,59.7668276 7.1139383,59.7636342 7.10090317,59.7603988 C7.05287413,59.7448049 7.00412234,59.7292121 6.91446304,59.700656 C6.45872582,59.5535094 6.02720869,59.390727 5.62032313,59.2106499 C4.10650314,58.5433134 2.83007196,57.6030371 1.90281936,56.4362244 C1.17050627,55.5135232 0.63400312,54.4242486 0.325247418,53.2482568 C0.254249997,52.9767376 0.196576029,52.7117505 0.152868432,52.4531672 C0.0440215985,51.8441725 -0.00621683688,51.221624 0.000612648827,50.5891546 C0.00631134039,50.1761009 0.0304287831,49.8312661 0.0805581082,49.5133918 C0.532746835,46.6643499 1.95525363,44.6928052 4.06012753,43.4139421 C4.97042416,42.8608712 5.95021397,42.4755204 6.93025105,42.2300694 C7.27263795,42.1443183 7.58955122,42.0823589 7.87213298,42.0404192 C8.03689088,42.0159665 8.15005057,42.0037903 8.20277381,42 L21,42.0016835 L21,47.3379966 L17.8237436,50.2544545 L17.8237436,51.0169037 L21,53.9351295 L21,60 Z" id="Combined-Shape" fill="#2C57DA" transform="translate(10.500000, 51.000000) scale(1, -1) translate(-10.500000, -51.000000) "></path>
                </g>
            </g>
        </g>
    </g>
</svg>