<?xml version="1.0" encoding="UTF-8" standalone="no"?>
<svg
   xmlns:dc="http://purl.org/dc/elements/1.1/"
   xmlns:cc="http://creativecommons.org/ns#"
   xmlns:rdf="http://www.w3.org/1999/02/22-rdf-syntax-ns#"
   xmlns:svg="http://www.w3.org/2000/svg"
   xmlns="http://www.w3.org/2000/svg"
   viewBox="0 0 2025 599.99999"
   height="600"
   width="2025"
   xml:space="preserve"
   id="svg2"
   version="1.1"><metadata
     id="metadata8"><rdf:RDF><cc:Work
         rdf:about=""><dc:format>image/svg+xml</dc:format><dc:type
           rdf:resource="http://purl.org/dc/dcmitype/StillImage" /><dc:title></dc:title></cc:Work></rdf:RDF></metadata><defs
     id="defs6"><clipPath
       id="clipPath18"
       clipPathUnits="userSpaceOnUse"><path
         id="path16"
         d="M 0,2000 H 2000 V 0 H 0 Z" /></clipPath></defs><g
     transform="matrix(1.3333333,0,0,-1.3333333,0,599.99995)"
     id="g10"><g
       transform="matrix(0.99962505,0,0,0.99962505,-210.63829,-777.13354)"
       id="g12"><g
         clip-path="url(#clipPath18)"
         id="g14"><g
           transform="translate(435.8013,1227.5938)"
           id="g20"><path
             id="path22"
             style="fill:#569e4c;fill-opacity:1;fill-rule:nonzero;stroke:none"
             d="m 0,0 c -124.311,0 -225.084,-100.774 -225.084,-225.084 0,-62.156 25.193,-118.427 65.925,-159.159 L 159.159,-65.926 C 118.426,-25.194 62.155,0 0,0" /></g><g
           transform="translate(594.96,1161.668)"
           id="g24"><path
             id="path26"
             style="fill:#338741;fill-opacity:1;fill-rule:nonzero;stroke:none"
             d="m 0,0 -318.317,-318.317 c 40.732,-40.733 97.003,-65.926 159.158,-65.926 124.311,0 225.085,100.773 225.085,225.084 C 65.926,-97.003 40.732,-40.732 0,0" /></g><g
           transform="translate(275.4873,844.6201)"
           id="g28"><path
             id="path30"
             style="fill:#ffffff;fill-opacity:1;fill-rule:nonzero;stroke:none"
             d="m 0,0 2.246,-2.246 318.26,318.26 -2.246,2.246 z" /></g><g
           transform="translate(580.5674,1125.231)"
           id="g32"><path
             id="path34"
             style="fill:#ffffff;fill-opacity:1;fill-rule:nonzero;stroke:none"
             d="m 0,0 v -31.716 l -0.024,0.024 -14.199,-13.199 v -0.872 L -0.024,-58.969 0,-58.945 v -29.069 h -235.941 c 0,0 -26.341,-4.343 -37.651,-34.684 -0.009,-0.016 -0.009,-0.024 -0.009,-0.024 v 88.318 c 0,0 7.48,33.94 37.812,35.02 z" /></g><g
           transform="translate(580.5674,1125.231)"
           id="g36"><path
             id="path38"
             style="fill:none;stroke:#73b05f;stroke-width:2;stroke-linecap:butt;stroke-linejoin:miter;stroke-miterlimit:10;stroke-dasharray:none;stroke-opacity:1"
             d="m 0,0 v -31.716 l -0.024,0.024 -14.199,-13.199 v -0.872 L -0.024,-58.969 0,-58.945 v -29.069 h -235.941 c 0,0 -26.341,-4.343 -37.651,-34.684 -0.009,-0.016 -0.009,-0.024 -0.009,-0.024 v 88.318 c 0,0 7.48,33.94 37.812,35.02 z" /></g><g
           transform="translate(493.7051,1037.2173)"
           id="g40"><path
             id="path42"
             style="fill:#ffffff;fill-opacity:1;fill-rule:nonzero;stroke:none"
             d="m 0,0 v -31.844 l -0.008,0.008 -14.19,-13.206 v -0.873 L -0.008,-59.113 0,-59.105 v -31.381 h -149.278 c 0,0 -1.6,-0.279 -4.168,-1.168 -0.04,-0.015 -0.072,-0.023 -0.112,-0.031 -8.071,-2.816 -25.429,-11.495 -33.18,-35.7 v 92.677 c 0,0 0,0.008 0.008,0.024 0.248,0.92 8.391,30.564 37.651,34.684 z" /></g><g
           transform="translate(493.7051,1037.2173)"
           id="g44"><path
             id="path46"
             style="fill:none;stroke:#73b05f;stroke-width:2;stroke-linecap:butt;stroke-linejoin:miter;stroke-miterlimit:10;stroke-dasharray:none;stroke-opacity:1"
             d="m 0,0 v -31.844 l -0.008,0.008 -14.19,-13.206 v -0.873 L -0.008,-59.113 0,-59.105 v -31.381 h -149.278 c 0,0 -1.6,-0.279 -4.168,-1.168 -0.04,-0.015 -0.072,-0.023 -0.112,-0.031 -8.071,-2.816 -25.429,-11.495 -33.18,-35.7 v 92.677 c 0,0 0,0.008 0.008,0.024 0.248,0.92 8.391,30.564 37.651,34.684 z" /></g><g
           transform="translate(391.8452,901.4971)"
           id="g48"><path
             id="path50"
             style="fill:#ffffff;fill-opacity:1;fill-rule:nonzero;stroke:none"
             d="m 0,0 v -0.872 l 14.086,-13.198 0.096,0.088 v -28.797 h -60.369 c 0,0 -33.684,2.471 -39.019,36.771 -0.272,1.76 -0.368,3.552 -0.392,5.328 -0.032,3.024 0.2,6.047 0.72,9.015 0.216,1.304 0.496,2.6 0.824,3.88 1.455,5.655 3.999,11.014 7.583,15.622 4.647,5.967 10.887,10.454 17.734,13.534 1.984,0.896 4.023,1.672 6.087,2.352 0.32,0.104 0.64,0.208 0.952,0.312 0.04,0.008 0.072,0.016 0.112,0.031 2.176,0.681 4.295,1.168 6.615,1.168 h 0.28 c 0.96,-0.015 1.928,0 2.896,0 H 14.182 V 13.118 l -0.096,0.088 z" /></g><g
           transform="translate(391.8452,901.4971)"
           id="g52"><path
             id="path54"
             style="fill:none;stroke:#73b05f;stroke-width:2;stroke-linecap:butt;stroke-linejoin:miter;stroke-miterlimit:10;stroke-dasharray:none;stroke-opacity:1"
             d="m 0,0 v -0.872 l 14.086,-13.198 0.096,0.088 v -28.797 h -60.369 c 0,0 -33.684,2.471 -39.019,36.771 -0.272,1.76 -0.368,3.552 -0.392,5.328 -0.032,3.024 0.2,6.047 0.72,9.015 0.216,1.304 0.496,2.6 0.824,3.88 1.455,5.655 3.999,11.014 7.583,15.622 4.647,5.967 10.887,10.454 17.734,13.534 1.984,0.896 4.023,1.672 6.087,2.352 0.32,0.104 0.64,0.208 0.952,0.312 0.04,0.008 0.072,0.016 0.112,0.031 2.176,0.681 4.295,1.168 6.615,1.168 h 0.28 c 0.96,-0.015 1.928,0 2.896,0 H 14.182 V 13.118 l -0.096,0.088 z" /></g><g
           transform="translate(815.3672,1038.4517)"
           id="g56"><path
             id="path58"
             style="fill:#338741;fill-opacity:1;fill-rule:nonzero;stroke:none"
             d="m 0,0 h -49.771 c -4.486,0 -7.752,-0.994 -9.8,-2.979 -2.051,-1.987 -3.075,-5.221 -3.075,-9.704 v -30.746 h 55.344 v -13.645 h -55.344 v -61.301 H -79.557 V -9.416 c 0,7.558 2.307,13.418 6.918,17.583 4.613,4.162 10.825,6.246 18.64,6.246 25.237,0 43.556,-0.451 54.96,-1.346 z" /></g><g
           transform="translate(856.4883,990.0254)"
           id="g60"><path
             id="path62"
             style="fill:#338741;fill-opacity:1;fill-rule:nonzero;stroke:none"
             d="m 0,0 h 28.632 c 9.993,0.126 16.845,1.922 20.562,5.381 3.715,3.459 5.573,10.056 5.573,19.793 0,9.609 -1.858,16.109 -5.573,19.505 -3.717,3.393 -10.569,5.092 -20.562,5.092 C 14.539,49.771 4.996,49.706 0,49.579 Z M 76.674,-69.948 H 58.61 L 46.888,-28.44 c -1.666,4.996 -3.909,8.551 -6.725,10.665 -2.82,2.114 -6.471,3.171 -10.954,3.171 -4.486,0 -9.962,0.03 -16.43,0.096 C 6.308,-14.445 2.047,-14.412 0,-14.412 V -69.948 H -16.719 V 62.646 c 10.761,1.154 26.006,1.73 45.736,1.73 15.757,0 26.837,-2.723 33.245,-8.167 C 68.666,50.762 71.87,40.74 71.87,26.135 71.87,15.245 69.978,7.11 66.201,1.729 62.421,-3.65 56.175,-6.918 47.465,-8.07 v -0.961 c 3.585,-0.899 6.852,-2.979 9.8,-6.245 2.946,-3.268 5.123,-7.529 6.534,-12.78 z" /></g><g
           transform="translate(1033.0879,1028.3628)"
           id="g64"><path
             id="path66"
             style="fill:#338741;fill-opacity:1;fill-rule:nonzero;stroke:none"
             d="m 0,0 c -4.996,7.75 -14.027,11.626 -27.095,11.626 -13.068,0 -22.1,-3.876 -27.096,-11.626 -4.996,-7.752 -7.494,-21.748 -7.494,-41.988 0,-20.244 2.498,-34.239 7.494,-41.988 4.996,-7.753 14.028,-11.626 27.096,-11.626 13.068,0 22.099,3.873 27.095,11.626 4.997,7.749 7.495,21.744 7.495,41.988 C 7.495,-21.748 4.997,-7.752 0,0 m -67.931,11.722 c 7.75,10.056 21.361,15.085 40.836,15.085 19.472,0 33.053,-5.029 40.74,-15.085 7.686,-10.058 11.529,-27.96 11.529,-53.71 0,-25.751 -3.843,-43.655 -11.529,-53.711 -7.687,-10.058 -21.268,-15.085 -40.74,-15.085 -19.475,0 -33.086,5.027 -40.836,15.085 -7.753,10.056 -11.626,27.96 -11.626,53.711 0,25.75 3.873,43.652 11.626,53.71" /></g><g
           transform="translate(1188.9346,1052.6719)"
           id="g68"><path
             id="path70"
             style="fill:#338741;fill-opacity:1;fill-rule:nonzero;stroke:none"
             d="m 0,0 v -125.869 c 0,-4.485 -2.181,-6.726 -6.534,-6.726 h -16.527 c -3.459,0 -5.957,1.793 -7.494,5.381 l -44.774,93.969 c -4.358,9.48 -6.856,15.308 -7.495,17.488 h -3.074 c 0.51,-5.126 0.768,-10.954 0.768,-17.488 v -99.35 h -16.91 V -6.726 c 0,4.483 2.239,6.726 6.726,6.726 h 15.949 c 3.459,0 5.958,-1.795 7.495,-5.38 l 43.43,-91.664 c 3.2,-6.278 6.211,-12.683 9.031,-19.217 h 3.266 c -0.383,6.918 -0.576,13.645 -0.576,20.178 V 0 Z" /></g><g
           transform="translate(1312.6865,1037.6831)"
           id="g72"><path
             id="path74"
             style="fill:#338741;fill-opacity:1;fill-rule:nonzero;stroke:none"
             d="M 0,0 H -42.853 V -117.606 H -59.764 V 0 h -42.66 V 14.989 H 0 Z" /></g><g
           transform="translate(1350.3496,1052.6719)"
           id="g76"><path
             id="path78"
             style="fill:#338741;fill-opacity:1;fill-rule:nonzero;stroke:none"
             d="m 0,0 v -105.691 c 0,-8.455 4.29,-12.683 12.875,-12.683 h 47.85 l 0.768,-13.067 c -11.145,-0.898 -28.249,-1.346 -51.308,-1.346 -17.938,0 -26.904,8.326 -26.904,24.982 V 0 Z" /></g><g
           transform="translate(1513.3057,934.1055)"
           id="g80"><path
             id="path82"
             style="fill:#338741;fill-opacity:1;fill-rule:nonzero;stroke:none"
             d="m 0,0 0.769,-13.067 c -11.789,-0.769 -30.748,-1.154 -56.882,-1.154 -7.816,0 -13.998,2.081 -18.544,6.246 -4.549,4.162 -6.888,9.768 -7.014,16.815 v 86.859 c 0.126,7.044 2.465,12.65 7.014,16.814 4.546,4.162 10.728,6.246 18.544,6.246 26.134,0 45.093,-0.384 56.882,-1.154 L 0,104.346 h -53.23 c -7.687,0 -11.531,-4.227 -11.531,-12.683 V 62.838 H -7.495 V 49.194 H -64.761 V 12.875 C -64.761,4.291 -60.917,0 -53.23,0 Z" /></g><g
           transform="translate(1587.8652,976.1895)"
           id="g84"><path
             id="path86"
             style="fill:#338741;fill-opacity:1;fill-rule:nonzero;stroke:none"
             d="m 0,0 -27.479,6.918 c -9.354,2.307 -16.046,6.437 -20.083,12.394 -4.035,5.959 -6.052,14.126 -6.052,24.502 0,7.687 0.799,13.866 2.401,18.544 1.601,4.675 4.355,8.198 8.264,10.569 3.906,2.369 8.262,3.94 13.067,4.709 4.804,0.768 11.241,1.153 19.313,1.153 C 5.06,78.53 18.189,77.251 28.824,74.945 L 27.672,62.646 c -12.428,0.64 -24.919,0.961 -37.473,0.961 -5.638,0 -9.801,-0.128 -12.49,-0.384 -2.69,-0.258 -5.318,-1.027 -7.879,-2.306 -2.564,-1.282 -4.261,-3.3 -5.093,-6.053 -0.835,-2.757 -1.249,-6.567 -1.249,-11.434 0,-7.047 1.249,-12.043 3.747,-14.989 2.498,-2.948 6.823,-5.189 12.972,-6.726 L 7.11,14.989 C 16.974,12.554 23.892,8.39 27.864,2.498 c 3.969,-5.894 5.957,-14.157 5.957,-24.789 0,-14.605 -3.3,-24.279 -9.896,-29.017 -6.601,-4.741 -18.097,-7.11 -34.494,-7.11 -13.965,0 -27.672,1.219 -41.123,3.651 l 1.152,12.491 c 21.522,-0.769 35.037,-1.09 40.547,-0.961 10.503,0 17.583,1.345 21.234,4.036 3.652,2.69 5.477,8.455 5.477,17.295 0,7.302 -1.249,12.394 -3.747,15.277 C 10.473,-3.747 6.149,-1.537 0,0" /></g><g
           transform="translate(1695.668,976.1895)"
           id="g88"><path
             id="path90"
             style="fill:#338741;fill-opacity:1;fill-rule:nonzero;stroke:none"
             d="m 0,0 -27.479,6.918 c -9.354,2.307 -16.046,6.437 -20.083,12.394 -4.035,5.959 -6.052,14.126 -6.052,24.502 0,7.687 0.799,13.866 2.401,18.544 1.601,4.675 4.355,8.198 8.264,10.569 3.906,2.369 8.262,3.94 13.067,4.709 4.804,0.768 11.241,1.153 19.313,1.153 C 5.06,78.53 18.189,77.251 28.824,74.945 L 27.672,62.646 c -12.428,0.64 -24.919,0.961 -37.473,0.961 -5.638,0 -9.801,-0.128 -12.49,-0.384 -2.69,-0.258 -5.318,-1.027 -7.879,-2.306 -2.564,-1.282 -4.261,-3.3 -5.093,-6.053 -0.835,-2.757 -1.249,-6.567 -1.249,-11.434 0,-7.047 1.249,-12.043 3.747,-14.989 2.498,-2.948 6.823,-5.189 12.972,-6.726 L 7.11,14.989 C 16.974,12.554 23.892,8.39 27.864,2.498 c 3.969,-5.894 5.957,-14.157 5.957,-24.789 0,-14.605 -3.3,-24.279 -9.896,-29.017 -6.601,-4.741 -18.097,-7.11 -34.494,-7.11 -13.965,0 -27.672,1.219 -41.123,3.651 l 1.152,12.491 c 21.522,-0.769 35.037,-1.09 40.547,-0.961 10.503,0 17.583,1.345 21.234,4.036 3.652,2.69 5.477,8.455 5.477,17.295 0,7.302 -1.249,12.394 -3.747,15.277 C 10.473,-3.747 6.149,-1.537 0,0" /></g></g></g></g></svg>