<?xml version="1.0" encoding="UTF-8"?>
<svg width="253px" height="60px" viewBox="0 0 253 60" version="1.1" xmlns="http://www.w3.org/2000/svg" xmlns:xlink="http://www.w3.org/1999/xlink">
    <!-- Generator: Sketch 55.2 (78181) - https://sketchapp.com -->
    <title>Group 7</title>
    <desc>Created with Sketch.</desc>
    <g id="Page-1" stroke="none" stroke-width="1" fill="none" fill-rule="evenodd">
        <g id="Artboard-Copy-2" transform="translate(-103.000000, -54.000000)" fill-rule="nonzero">
            <g id="Group-2" transform="translate(103.000000, 54.000000)">
                <g id="Group-7">
                    <g id="Group">
                        <path d="M8.34772991,25 C5.63264433,24.9007603 3.57743214,23.5165819 2.0797076,21.2367228 C1.52591417,20.39373 1.08985991,19.486198 0.760544937,18.5786136 C0.64546806,18.2614644 0.552205516,17.9678196 0.479143301,17.7057808 C0.450685514,17.6037165 0.429665601,17.5226738 0.415584416,17.4650332 L0.415584416,-5.32907052e-15 C1.14703761,1.19078904 2.01706283,2.20942073 3.00095248,3.06668785 C4.12684088,4.04767907 5.33328075,4.75964072 6.54160548,5.24621845 C7.27430045,5.54126584 7.85330568,5.69690101 8.20314466,5.75580681 L8.31487333,5.76515 L61.4155844,5.76515 L61.4155844,11.5178892 L58.1732171,14.5975865 L58.1732171,15.4096388 L61.4155844,18.4877037 L61.4155844,24.8584138 L8.34772991,25 Z" id="Combined-Shape" fill="#426BFF" transform="translate(30.915584, 12.500000) scale(1, -1) translate(-30.915584, -12.500000) "></path>
                        <path d="M8.32533458,46 C5.63947904,45.6084794 3.59698704,44.1896769 2.09383314,42.0759045 C1.55401342,41.3167966 1.12212064,40.5179396 0.788653172,39.7274657 C0.60481638,39.2916865 0.484523138,38.9436819 0.415584416,38.7053296 L0.415584416,21 C2.06294846,23.8423239 4.4348325,25.5956611 7.03536369,26.503964 L7.06273255,26.5114447 C7.54384265,26.677623 7.90046204,26.766995 8.11409393,26.8042868 L8.1723596,26.8144577 L41.4155844,26.8144577 L41.4155844,32.9584854 L38.1944834,35.9576022 L38.1944834,36.749763 L41.4155844,39.7506978 L41.4155844,46 L8.32533458,46 Z" id="Combined-Shape" fill="#426BFF" transform="translate(20.915584, 33.500000) scale(1, -1) translate(-20.915584, -33.500000) "></path>
                        <path d="M21,60 L9.13705671,60 C9.07837377,60 9.03156288,59.9997415 8.9238145,59.9991965 C8.7025267,59.9980754 8.60360794,59.9980754 8.47791524,60 L8.42574727,60 C8.0346491,60 7.6507698,59.9286341 7.14573785,59.7737429 C7.12398379,59.7668276 7.1139383,59.7636342 7.10090317,59.7603988 C7.05287413,59.7448049 7.00412234,59.7292121 6.91446304,59.700656 C6.45872582,59.5535094 6.02720869,59.390727 5.62032313,59.2106499 C4.10650314,58.5433134 2.83007196,57.6030371 1.90281936,56.4362244 C1.17050627,55.5135232 0.63400312,54.4242486 0.325247418,53.2482568 C0.254249997,52.9767376 0.196576029,52.7117505 0.152868432,52.4531672 C0.0440215985,51.8441725 -0.00621683688,51.221624 0.000612648827,50.5891546 C0.00631134039,50.1761009 0.0304287831,49.8312661 0.0805581082,49.5133918 C0.532746835,46.6643499 1.95525363,44.6928052 4.06012753,43.4139421 C4.97042416,42.8608712 5.95021397,42.4755204 6.93025105,42.2300694 C7.27263795,42.1443183 7.58955122,42.0823589 7.87213298,42.0404192 C8.03689088,42.0159665 8.15005057,42.0037903 8.20277381,42 L21,42.0016835 L21,47.3379966 L17.8237436,50.2544545 L17.8237436,51.0169037 L21,53.9351295 L21,60 Z" id="Combined-Shape" fill="#2C57DA" transform="translate(10.500000, 51.000000) scale(1, -1) translate(-10.500000, -51.000000) "></path>
                    </g>
                    <path d="M77.72,44 L77.72,15.6 L97,15.6 L97,21.36 L84.28,21.36 L84.28,27.48 L94.76,27.48 L94.76,32.8 L84.28,32.8 L84.28,44 L77.72,44 Z M111.720167,28.48 C110.173492,28.5066668 108.773506,28.7599976 107.520167,29.24 C106.266827,29.7200024 105.360169,30.4399952 104.800167,31.4 L104.800167,44 L98.4001667,44 L98.4001667,23 L104.280167,23 L104.280167,27.24 C105.00017,25.8266596 105.926828,24.720004 107.060167,23.92 C108.193506,23.119996 109.400167,22.7066668 110.680167,22.68 L111.320167,22.68 C111.453501,22.68 111.586833,22.6933332 111.720167,22.72 L111.720167,28.48 Z M123.360333,44.4 C121.573658,44.4 119.98034,44.1066696 118.580333,43.52 C117.180326,42.9333304 116.000338,42.140005 115.040333,41.14 C114.080329,40.139995 113.353669,38.9800066 112.860333,37.66 C112.366998,36.3399934 112.120333,34.9600072 112.120333,33.52 C112.120333,32.0799928 112.366998,30.7000066 112.860333,29.38 C113.353669,28.0599934 114.080329,26.900005 115.040333,25.9 C116.000338,24.899995 117.180326,24.1 118.580333,23.5 C119.98034,22.899997 121.573658,22.6 123.360333,22.6 C125.147009,22.6 126.73366,22.899997 128.120333,23.5 C129.507007,24.1 130.680329,24.899995 131.640333,25.9 C132.600338,26.900005 133.333664,28.0599934 133.840333,29.38 C134.347003,30.7000066 134.600333,32.0799928 134.600333,33.52 C134.600333,34.9600072 134.353669,36.3399934 133.860333,37.66 C133.366998,38.9800066 132.640338,40.139995 131.680333,41.14 C130.720329,42.140005 129.54034,42.9333304 128.140333,43.52 C126.740326,44.1066696 125.147009,44.4 123.360333,44.4 Z M118.680333,33.52 C118.680333,35.1733416 119.120329,36.499995 120.000333,37.5 C120.880338,38.500005 122.000327,39 123.360333,39 C124.027003,39 124.640331,38.866668 125.200333,38.6 C125.760336,38.333332 126.246998,37.9600024 126.660333,37.48 C127.073669,36.9999976 127.400332,36.4200034 127.640333,35.74 C127.880335,35.0599966 128.000333,34.320004 128.000333,33.52 C128.000333,31.8666584 127.560338,30.54 126.680333,29.54 C125.800329,28.54 124.693673,28.04 123.360333,28.04 C122.693663,28.04 122.07367,28.173332 121.500333,28.44 C120.926997,28.706668 120.433669,29.0799976 120.020333,29.56 C119.606998,30.04 119.280335,30.6199966 119.040333,31.3 C118.800332,31.9800034 118.680333,32.719996 118.680333,33.52 Z M158.0005,44 L151.6005,44 L151.6005,32.2 C151.6005,30.8133264 151.340503,29.8066698 150.8205,29.18 C150.300497,28.5533302 149.613838,28.24 148.7605,28.24 C148.307164,28.24 147.853836,28.3333324 147.4005,28.52 C146.947164,28.7066676 146.507169,28.966665 146.0805,29.3 C145.653831,29.633335 145.273835,30.0266644 144.9405,30.48 C144.607165,30.9333356 144.347168,31.426664 144.1605,31.96 L144.1605,44 L137.7605,44 L137.7605,23 L143.5205,23 L143.5205,26.52 C144.293837,25.2666604 145.38716,24.3000034 146.8005,23.62 C148.21384,22.9399966 149.840491,22.6 151.6805,22.6 C153.040507,22.6 154.133829,22.8466642 154.9605,23.34 C155.787171,23.8333358 156.427164,24.4733294 156.8805,25.26 C157.333836,26.0466706 157.633833,26.906662 157.7805,27.84 C157.927167,28.773338 158.0005,29.6799956 158.0005,30.56 L158.0005,44 Z M175.640667,42.88 C174.760662,43.2533352 173.754006,43.5999984 172.620667,43.92 C171.487328,44.2400016 170.347339,44.4 169.200667,44.4 C168.400663,44.4 167.647337,44.300001 166.940667,44.1 C166.233996,43.899999 165.614003,43.5800022 165.080667,43.14 C164.547331,42.6999978 164.127335,42.1200036 163.820667,41.4 C163.513998,40.6799964 163.360667,39.8133384 163.360667,38.8 L163.360667,27.84 L160.680667,27.84 L160.680667,23 L163.360667,23 L163.360667,16.32 L169.760667,16.32 L169.760667,23 L174.040667,23 L174.040667,27.84 L169.760667,27.84 L169.760667,36.6 C169.760667,37.2933368 169.933998,37.7933318 170.280667,38.1 C170.627335,38.4066682 171.067331,38.56 171.600667,38.56 C172.080669,38.56 172.573997,38.4800008 173.080667,38.32 C173.587336,38.1599992 174.027331,37.9866676 174.400667,37.8 L175.640667,42.88 Z M178.040833,14.8 L184.440833,14.8 L184.440833,36.52 C184.440833,38.120008 185.120827,38.92 186.480833,38.92 C186.800835,38.92 187.154165,38.8733338 187.540833,38.78 C187.927502,38.6866662 188.280832,38.5466676 188.600833,38.36 L189.440833,43.16 C188.640829,43.5333352 187.720839,43.8266656 186.680833,44.04 C185.640828,44.2533344 184.667505,44.36 183.760833,44.36 C181.920824,44.36 180.507505,43.8800048 179.520833,42.92 C178.534162,41.9599952 178.040833,40.5733424 178.040833,38.76 L178.040833,14.8 Z M201.561,44.4 C199.800991,44.4 198.221007,44.1133362 196.821,43.54 C195.420993,42.9666638 194.234338,42.1866716 193.261,41.2 C192.287662,40.2133284 191.547669,39.0733398 191.041,37.78 C190.534331,36.4866602 190.281,35.1333404 190.281,33.72 C190.281,32.1999924 190.534331,30.7666734 191.041,29.42 C191.547669,28.0733266 192.281,26.8933384 193.241,25.88 C194.201005,24.8666616 195.380993,24.0666696 196.781,23.48 C198.181007,22.8933304 199.774324,22.6 201.561,22.6 C203.347676,22.6 204.934326,22.8933304 206.321,23.48 C207.707674,24.0666696 208.880995,24.859995 209.841,25.86 C210.801005,26.860005 211.527664,28.0133268 212.021,29.32 C212.514336,30.6266732 212.761,31.9999928 212.761,33.44 C212.761,33.8133352 212.747667,34.1799982 212.721,34.54 C212.694333,34.9000018 212.654334,35.213332 212.601,35.48 L197.081,35.48 C197.187667,36.8933404 197.700995,37.966663 198.621,38.7 C199.541005,39.433337 200.587661,39.8 201.761,39.8 C202.694338,39.8 203.594329,39.5733356 204.461,39.12 C205.327671,38.6666644 205.907665,38.0533372 206.201,37.28 L211.641,38.8 C210.814329,40.4533416 209.534342,41.7999948 207.801,42.84 C206.067658,43.8800052 203.987679,44.4 201.561,44.4 Z M206.001,31.52 C205.867666,30.18666 205.387671,29.1333372 204.561,28.36 C203.734329,27.5866628 202.707673,27.2 201.481,27.2 C200.22766,27.2 199.194337,27.5933294 198.381,28.38 C197.567663,29.1666706 197.094334,30.2133268 196.961,31.52 L206.001,31.52 Z M223.961167,44.4 C222.174491,44.4 220.414509,44.1133362 218.681167,43.54 C216.947825,42.9666638 215.481173,42.1333388 214.281167,41.04 L216.561167,37.12 C217.841173,38.0000044 219.087827,38.6799976 220.301167,39.16 C221.514506,39.6400024 222.681161,39.88 223.801167,39.88 C224.627837,39.88 225.267831,39.7333348 225.721167,39.44 C226.174502,39.1466652 226.401167,38.7200028 226.401167,38.16 C226.401167,37.6 226.114503,37.153335 225.541167,36.82 C224.96783,36.486665 223.961174,36.1333352 222.521167,35.76 C221.107826,35.359998 219.914505,34.9733352 218.941167,34.6 C217.967828,34.2266648 217.174503,33.8133356 216.561167,33.36 C215.94783,32.9066644 215.507835,32.3866696 215.241167,31.8 C214.974499,31.2133304 214.841167,30.520004 214.841167,29.72 C214.841167,28.653328 215.054498,27.6800044 215.481167,26.8 C215.907835,25.9199956 216.494496,25.1733364 217.241167,24.56 C217.987837,23.9466636 218.874495,23.4666684 219.901167,23.12 C220.927838,22.7733316 222.041161,22.6 223.241167,22.6 C224.814508,22.6 226.287826,22.8133312 227.661167,23.24 C229.034507,23.6666688 230.36116,24.4399944 231.641167,25.56 L229.161167,29.4 C227.961161,28.5733292 226.894505,27.9733352 225.961167,27.6 C225.027829,27.2266648 224.121171,27.04 223.241167,27.04 C222.54783,27.04 221.961169,27.1799986 221.481167,27.46 C221.001164,27.7400014 220.761167,28.1866636 220.761167,28.8 C220.761167,29.3866696 221.021164,29.8266652 221.541167,30.12 C222.061169,30.4133348 223.027826,30.7333316 224.441167,31.08 C225.934507,31.480002 227.194495,31.879998 228.221167,32.28 C229.247838,32.680002 230.081163,33.1266642 230.721167,33.62 C231.36117,34.1133358 231.827832,34.6799968 232.121167,35.32 C232.414501,35.9600032 232.561167,36.7199956 232.561167,37.6 C232.561167,39.6800104 231.787841,41.3333272 230.241167,42.56 C228.694492,43.7866728 226.60118,44.4 223.961167,44.4 Z M243.921333,44.4 C242.134658,44.4 240.374675,44.1133362 238.641333,43.54 C236.907991,42.9666638 235.441339,42.1333388 234.241333,41.04 L236.521333,37.12 C237.80134,38.0000044 239.047994,38.6799976 240.261333,39.16 C241.474673,39.6400024 242.641328,39.88 243.761333,39.88 C244.588004,39.88 245.227998,39.7333348 245.681333,39.44 C246.134669,39.1466652 246.361333,38.7200028 246.361333,38.16 C246.361333,37.6 246.07467,37.153335 245.501333,36.82 C244.927997,36.486665 243.921341,36.1333352 242.481333,35.76 C241.067993,35.359998 239.874672,34.9733352 238.901333,34.6 C237.927995,34.2266648 237.13467,33.8133356 236.521333,33.36 C235.907997,32.9066644 235.468001,32.3866696 235.201333,31.8 C234.934665,31.2133304 234.801333,30.520004 234.801333,29.72 C234.801333,28.653328 235.014665,27.6800044 235.441333,26.8 C235.868002,25.9199956 236.454663,25.1733364 237.201333,24.56 C237.948004,23.9466636 238.834662,23.4666684 239.861333,23.12 C240.888005,22.7733316 242.001327,22.6 243.201333,22.6 C244.774675,22.6 246.247993,22.8133312 247.621333,23.24 C248.994674,23.6666688 250.321327,24.4399944 251.601333,25.56 L249.121333,29.4 C247.921327,28.5733292 246.854671,27.9733352 245.921333,27.6 C244.987995,27.2266648 244.081338,27.04 243.201333,27.04 C242.507997,27.04 241.921336,27.1799986 241.441333,27.46 C240.961331,27.7400014 240.721333,28.1866636 240.721333,28.8 C240.721333,29.3866696 240.981331,29.8266652 241.501333,30.12 C242.021336,30.4133348 242.987993,30.7333316 244.401333,31.08 C245.894674,31.480002 247.154662,31.879998 248.181333,32.28 C249.208005,32.680002 250.04133,33.1266642 250.681333,33.62 C251.321337,34.1133358 251.787999,34.6799968 252.081333,35.32 C252.374668,35.9600032 252.521333,36.7199956 252.521333,37.6 C252.521333,39.6800104 251.748008,41.3333272 250.201333,42.56 C248.654659,43.7866728 246.561347,44.4 243.921333,44.4 Z" id="Frontless" fill="#2C57DA"></path>
                </g>
            </g>
        </g>
    </g>
</svg>